# xmcd
#
# Track frame offsets:
#	150
#	11725
#	32092
#	52397
#	71737
#	89700
#	103385
#	120785
#	138327
#	157962
#	175335
#	191082
#	216085
#	230685
#	241985
#
# Disc length: 3427
#
# Revision: 1
# Processed by: cddbd v1.5.1PL0 Copyright (c) Steve Scherf et al.
# Submitted via: ExactAudioCopy v0.95a4
# Normalized: r0:TDELIM( - )
#
DISCID=dc0d610f
DTITLE=Various Artist - Rhythm and Soul n°29
DYEAR=2000
DGENRE=Soul
TTITLE0=Nina Simone - I Put A Spell On You
TTITLE1=Marvin Gaye - I Want You
TTITLE2=Quincy Jones - Just Once
TTITLE3=The Commodores - Easy
TTITLE4=Rick James - Ebony Eyes
TTITLE5=Sly and The Family Stone - Family Affair
TTITLE6=Bootsy Collins - I'm Leaving You (Gotta Go Gotta Go)
TTITLE7=The Braxtons - So Many Ways
TTITLE8=Horace Brown - One For The Money
TTITLE9=Zhane - Mr DJ
TTITLE10=Weather Girls - It's Raining Men
TTITLE11=Aretha Franklin - Push
TTITLE12=Stevie Wonder - We Can Work It Out
TTITLE13=Diana Ross and The Supremes - The World Is Empty Without You
TTITLE14=James Brown - Soul Power
EXTD=
EXTT0=
EXTT1=
EXTT2=
EXTT3=
EXTT4=
EXTT5=
EXTT6=
EXTT7=
EXTT8=
EXTT9=
EXTT10=
EXTT11=
EXTT12=
EXTT13=
EXTT14=
PLAYORDER=
